<svg xmlns="http://www.w3.org/2000/svg" viewBox="0 0 161 36" fill="none">
  <path d="M8.07 27.27L8.07 27.27Q4.74 27.27 2.82 25.32Q0.91 23.37 0.91 19.95L0.91 19.95Q0.91 17.77 1.77 16.12Q2.63 14.47 4.20 13.55Q5.78 12.63 7.91 12.63L7.91 12.63Q9.90 12.63 11.44 13.46Q12.99 14.29 13.87 15.91Q14.75 17.53 14.75 19.87L14.75 19.87L14.75 20.98L5.27 20.98Q5.33 22.52 6.11 23.29Q6.89 24.05 8.15 24.05L8.15 24.05Q9.04 24.05 9.69 23.68Q10.33 23.31 10.60 22.59L10.60 22.59L14.55 23.24Q14.02 25.08 12.33 26.17Q10.65 27.27 8.07 27.27ZM5.29 18.41L5.29 18.41L10.55 18.41Q10.42 17.20 9.76 16.52Q9.10 15.84 7.95 15.84L7.95 15.84Q6.78 15.84 6.10 16.53Q5.42 17.22 5.29 18.41Z M28.74 27L16.60 27L16.60 24.45L23.21 16.36L23.21 16.27L16.82 16.27L16.82 12.81L28.50 12.81L28.50 15.61L22.36 23.45L22.36 23.53L28.74 23.53L28.74 27Z M36.77 12.81L39.61 12.81L39.61 16.09L36.77 16.09L36.77 27L32.36 27L32.36 16.09L29.98 16.09L29.98 12.81L32.36 12.81L32.36 12.04Q32.36 9.61 33.71 8.40Q35.05 7.20 37.19 7.20L37.19 7.20Q38.13 7.20 38.95 7.34Q39.78 7.49 40.17 7.60L40.17 7.60L39.46 10.84Q39.21 10.78 38.86 10.72Q38.52 10.66 38.18 10.66L38.18 10.66Q37.39 10.66 37.08 11.02Q36.77 11.38 36.77 12.01L36.77 12.01L36.77 12.81Z M46.26 27.18L46.26 27.18Q44.03 27.18 42.68 25.72Q41.33 24.26 41.33 21.85L41.33 21.85L41.33 12.81L45.76 12.81L45.76 20.98Q45.76 22.18 46.38 22.85Q47.00 23.53 48.08 23.53L48.08 23.53Q49.17 23.53 49.83 22.84Q50.50 22.15 50.50 20.91L50.50 20.91L50.50 12.81L54.93 12.81L54.93 27L50.77 27L50.70 23.93Q50.13 25.41 49.05 26.30Q47.97 27.18 46.26 27.18Z M62.45 12.81L65.01 12.81L65.01 16.09L62.45 16.09L62.45 22.66Q62.45 23.76 63.58 23.76L63.58 23.76Q63.81 23.76 64.23 23.71Q64.64 23.65 64.82 23.61L64.82 23.61L65.39 26.83Q64.64 27.05 63.94 27.13Q63.24 27.20 62.62 27.20L62.62 27.20Q60.36 27.20 59.19 26.14Q58.02 25.08 58.02 23.05L58.02 23.05L58.02 16.09L56.14 16.09L56.14 12.81L58.02 12.81L58.02 9.43L62.45 9.43L62.45 12.81Z M71.70 27.18L71.70 27.18Q69.47 27.18 68.12 25.72Q66.78 24.26 66.78 21.85L66.78 21.85L66.78 12.81L71.21 12.81L71.21 20.98Q71.21 22.18 71.82 22.85Q72.44 23.53 73.52 23.53L73.52 23.53Q74.61 23.53 75.28 22.84Q75.94 22.15 75.94 20.91L75.94 20.91L75.94 12.81L80.38 12.81L80.38 27L76.21 27L76.15 23.93Q75.58 25.41 74.50 26.30Q73.42 27.18 71.70 27.18Z M87.23 27L82.79 27L82.79 12.81L87.10 12.81L87.10 15.40L87.25 15.40Q87.63 14 88.51 13.31Q89.40 12.63 90.56 12.63L90.56 12.63Q91.21 12.63 91.82 12.78L91.82 12.78L91.82 16.64Q91.50 16.53 90.99 16.47Q90.48 16.41 90.07 16.41L90.07 16.41Q88.84 16.41 88.03 17.20Q87.23 17.99 87.23 19.26L87.23 19.26L87.23 27Z M99.83 27.27L99.83 27.27Q96.49 27.27 94.58 25.32Q92.67 23.37 92.67 19.95L92.67 19.95Q92.67 17.77 93.52 16.12Q94.38 14.47 95.96 13.55Q97.53 12.63 99.66 12.63L99.66 12.63Q101.66 12.63 103.20 13.46Q104.74 14.29 105.62 15.91Q106.50 17.53 106.50 19.87L106.50 19.87L106.50 20.98L97.02 20.98Q97.08 22.52 97.87 23.29Q98.65 24.05 99.90 24.05L99.90 24.05Q100.79 24.05 101.44 23.68Q102.09 23.31 102.35 22.59L102.35 22.59L106.30 23.24Q105.77 25.08 104.09 26.17Q102.40 27.27 99.83 27.27ZM97.05 18.41L97.05 18.41L102.30 18.41Q102.18 17.20 101.52 16.52Q100.86 15.84 99.70 15.84L99.70 15.84Q98.53 15.84 97.85 16.53Q97.17 17.22 97.05 18.41Z" fill="#111827"/>
  <rect x="111" y="4" width="50" height="28" rx="8" fill="#5B6AE8"/>
  <path d="M127.48 25.19L127.48 25.19Q126.77 25.19 126.28 24.70Q125.79 24.22 125.79 23.51L125.79 23.51Q125.79 22.79 126.28 22.31Q126.77 21.83 127.48 21.83L127.48 21.83Q128.20 21.83 128.69 22.31Q129.17 22.79 129.17 23.51L129.17 23.51Q129.17 24.22 128.69 24.70Q128.20 25.19 127.48 25.19Z M135.12 25.21L135.12 25.21Q133.56 25.21 132.52 24.39Q131.49 23.56 131.49 21.94L131.49 21.94Q131.49 20.72 132.07 20.03Q132.66 19.34 133.60 19.01Q134.54 18.69 135.61 18.59L135.61 18.59Q137.02 18.46 137.64 18.31Q138.26 18.15 138.26 17.62L138.26 17.62L138.26 17.57Q138.26 16.88 137.81 16.49Q137.37 16.11 136.55 16.11L136.55 16.11Q135.70 16.11 135.18 16.48Q134.66 16.85 134.49 17.37L134.49 17.37L131.80 16.92Q132.22 15.51 133.48 14.73Q134.73 13.95 136.56 13.95L136.56 13.95Q137.73 13.95 138.79 14.32Q139.85 14.69 140.52 15.50Q141.19 16.32 141.19 17.65L141.19 17.65L141.19 25L138.41 25L138.41 23.49L138.31 23.49Q137.91 24.25 137.12 24.73Q136.33 25.21 135.12 25.21ZM135.95 23.15L135.95 23.15Q136.98 23.15 137.63 22.56Q138.28 21.96 138.28 21.09L138.28 21.09L138.28 19.91Q138.10 20.04 137.70 20.13Q137.31 20.22 136.87 20.30Q136.43 20.37 136.11 20.41L136.11 20.41Q135.30 20.53 134.80 20.87Q134.30 21.21 134.30 21.87L134.30 21.87Q134.30 22.50 134.76 22.83Q135.23 23.15 135.95 23.15Z M146.62 25L143.69 25L143.69 14.08L146.62 14.08L146.62 25ZM145.15 12.66L145.15 12.66Q144.49 12.66 144.02 12.22Q143.55 11.78 143.55 11.15L143.55 11.15Q143.55 10.53 144.02 10.09Q144.49 9.65 145.15 9.65L145.15 9.65Q145.81 9.65 146.29 10.09Q146.76 10.53 146.76 11.15L146.76 11.15Q146.76 11.78 146.29 12.22Q145.81 12.66 145.15 12.66Z" fill="white"/>
</svg>
